<svg xmlns="http://www.w3.org/2000/svg" width="4600mm" height="400mm" viewBox="0 0 4600 400">
<title>zone_wall_east_px: u right, z up, millimetres; print at 100%</title>
<rect width="4600" height="400" fill="#3b4754"/>
<polygon fill="#020203" points="119.498,400.000 140.116,400.000 140.116,0.000 119.498,0.000"/>
<polygon fill="#020203" points="344.680,400.000 369.360,400.000 369.360,0.000 344.680,0.000"/>
<polygon fill="#020203" points="609.250,400.000 639.005,400.000 639.005,0.000 609.250,0.000"/>
<polygon fill="#020203" points="870.996,400.000 897.886,400.000 897.886,0.000 870.996,0.000"/>
<polygon fill="#020203" points="1158.552,400.000 1182.012,400.000 1182.012,0.000 1158.552,0.000"/>
<polygon fill="#020203" points="1435.177,400.000 1459.466,400.000 1459.466,0.000 1435.177,0.000"/>
<polygon fill="#020203" points="1666.985,400.000 1687.109,400.000 1687.109,0.000 1666.985,0.000"/>
<polygon fill="#020203" points="1911.366,400.000 1931.485,400.000 1931.485,0.000 1911.366,0.000"/>
<polygon fill="#020203" points="2170.272,400.000 2191.872,400.000 2191.872,0.000 2170.272,0.000"/>
<polygon fill="#020203" points="2415.250,400.000 2437.113,400.000 2437.113,0.000 2415.250,0.000"/>
<polygon fill="#020203" points="2701.823,400.000 2724.275,400.000 2724.275,0.000 2701.823,0.000"/>
<polygon fill="#020203" points="2912.366,400.000 2938.349,400.000 2938.349,0.000 2912.366,0.000"/>
<polygon fill="#020203" points="3172.655,400.000 3198.026,400.000 3198.026,0.000 3172.655,0.000"/>
<polygon fill="#020203" points="3435.167,400.000 3456.438,400.000 3456.438,0.000 3435.167,0.000"/>
<polygon fill="#020203" points="3643.806,400.000 3664.121,400.000 3664.121,0.000 3643.806,0.000"/>
<polygon fill="#020203" points="3923.304,400.000 3943.384,400.000 3943.384,0.000 3923.304,0.000"/>
<polygon fill="#020203" points="4171.640,400.000 4193.602,400.000 4193.602,0.000 4171.640,0.000"/>
<polygon fill="#020203" points="4422.745,400.000 4451.286,400.000 4451.286,0.000 4422.745,0.000"/>
<polygon fill="#020203" points="197.708,161.519 183.252,146.296 167.533,147.847 158.142,158.361 170.198,171.668 186.650,171.433"/>
<polygon fill="#020203" points="294.566,250.487 286.469,241.208 273.901,239.542 264.030,241.907 257.823,247.862 265.702,258.010 278.729,259.646 290.238,256.166"/>
<polygon fill="#020203" points="279.218,100.069 275.624,86.091 268.291,81.579 261.886,84.573 257.080,97.195 259.323,109.370 266.332,115.903 275.692,111.521"/>
<polygon fill="#020203" points="242.223,115.108 223.805,100.023 206.754,109.080 212.848,127.134 227.893,129.623"/>
<polygon fill="#020203" points="536.520,303.241 532.010,292.574 511.355,287.688 501.872,296.154 500.963,310.865 517.165,322.611 531.530,316.977"/>
<polygon fill="#020203" points="454.024,253.155 449.138,238.982 435.635,233.751 427.368,236.840 419.973,251.650 423.174,262.032 438.320,269.442 447.165,265.992"/>
<polygon fill="#020203" points="693.377,111.617 686.665,100.139 670.537,98.694 662.184,107.541 663.959,121.618 672.074,127.677 689.314,123.330"/>
<polygon fill="#020203" points="734.684,195.657 731.245,186.019 718.576,180.184 702.851,183.447 696.449,191.696 699.976,202.730 717.189,208.392 727.035,205.615"/>
<polygon fill="#020203" points="753.555,167.651 743.904,150.566 724.136,150.221 713.995,171.393 720.220,184.952 740.849,189.307"/>
<polygon fill="#020203" points="757.205,261.668 751.171,242.435 736.077,251.946 735.976,272.220 752.360,280.702"/>
<polygon fill="#020203" points="1012.105,87.517 994.682,70.030 977.172,74.706 973.406,92.745 997.653,101.129"/>
<polygon fill="#020203" points="1024.106,207.481 1009.288,192.599 987.834,202.185 988.794,213.958 1014.227,220.333"/>
<polygon fill="#020203" points="1071.127,115.566 1055.442,102.927 1036.126,105.069 1034.064,121.690 1061.824,123.300"/>
<polygon fill="#020203" points="1054.199,164.672 1048.508,153.535 1028.280,151.157 1019.104,165.582 1026.961,180.608 1041.551,182.801"/>
<polygon fill="#020203" points="1232.276,165.186 1229.198,156.712 1219.414,152.504 1206.498,156.527 1203.147,163.046 1207.898,172.189 1219.346,175.081 1226.680,172.790"/>
<polygon fill="#020203" points="1275.270,220.180 1269.273,211.225 1258.178,208.719 1249.891,210.914 1243.358,219.606 1248.315,228.672 1256.946,231.721 1269.180,229.366"/>
<polygon fill="#020203" points="1269.047,89.086 1265.514,80.434 1259.269,76.636 1250.731,80.408 1247.167,89.166 1250.857,103.423 1259.155,107.060 1264.403,104.445"/>
<polygon fill="#020203" points="1411.437,362.183 1408.248,351.549 1394.543,346.106 1386.508,353.054 1384.587,366.021 1395.686,378.717 1405.704,375.857"/>
<polygon fill="#020203" points="1571.536,210.101 1560.924,191.183 1546.510,192.360 1538.100,206.939 1546.014,222.412 1560.664,224.000"/>
<polygon fill="#020203" points="1602.353,211.532 1589.456,200.511 1572.784,203.366 1566.967,216.296 1575.841,225.567 1590.661,226.496"/>
<polygon fill="#020203" points="1535.519,31.029 1527.975,16.079 1517.401,18.080 1512.185,30.896 1516.054,51.695 1529.093,54.610"/>
<polygon fill="#020203" points="1548.379,44.740 1539.061,23.636 1516.120,24.457 1508.449,47.761 1519.717,62.156 1538.042,61.361"/>
<polygon fill="#020203" points="1798.673,166.762 1794.743,159.300 1784.640,155.560 1773.323,164.458 1774.624,177.204 1780.727,182.468 1792.886,181.233"/>
<polygon fill="#020203" points="1747.809,344.385 1742.803,337.348 1736.816,335.816 1728.188,340.397 1727.714,351.427 1737.148,356.752 1745.450,353.015"/>
<polygon fill="#020203" points="1732.017,339.539 1724.051,319.623 1709.851,323.721 1705.823,339.257 1710.951,355.000 1727.965,353.560"/>
<polygon fill="#020203" points="2033.716,127.243 2031.008,117.113 2020.559,111.445 2010.363,116.760 2007.480,128.038 2010.791,135.838 2021.909,140.530 2028.146,137.958"/>
<polygon fill="#020203" points="2138.385,108.806 2136.137,96.663 2123.989,89.050 2118.728,92.480 2113.857,109.867 2116.715,119.680 2126.911,126.200 2133.024,122.994"/>
<polygon fill="#020203" points="2056.217,131.591 2049.610,122.886 2032.335,119.898 2019.379,125.371 2016.699,135.138 2029.739,144.076 2046.230,143.058"/>
<polygon fill="#020203" points="2022.593,44.345 2009.589,21.783 1986.832,27.977 1984.113,50.398 2012.459,59.569"/>
<polygon fill="#020203" points="2324.742,60.627 2314.332,45.948 2299.898,49.395 2299.296,67.199 2318.380,69.556"/>
<polygon fill="#020203" points="2378.671,36.824 2373.477,26.570 2361.888,22.596 2345.526,27.190 2341.064,35.673 2345.034,43.820 2363.186,48.710 2373.583,44.786"/>
<polygon fill="#020203" points="2276.395,125.033 2268.085,114.734 2247.733,116.194 2242.225,123.969 2248.658,135.365 2268.870,135.886"/>
<polygon fill="#020203" points="2592.363,112.888 2581.723,91.762 2565.476,92.934 2556.751,110.901 2564.554,125.626 2579.786,128.190"/>
<polygon fill="#020203" points="2623.541,357.003 2611.041,339.233 2600.453,339.795 2589.823,361.660 2594.571,371.450 2615.995,373.698"/>
<polygon fill="#020203" points="2764.180,232.906 2756.779,212.399 2746.857,210.741 2737.202,237.155 2741.370,249.813 2759.958,249.520"/>
<polygon fill="#020203" points="2814.552,116.269 2811.208,107.943 2800.756,103.425 2789.040,113.344 2790.501,124.568 2798.941,130.781 2809.662,128.055"/>
<polygon fill="#020203" points="3128.563,305.258 3120.321,291.909 3101.327,292.239 3093.909,303.276 3101.320,322.140 3115.689,324.527"/>
<polygon fill="#020203" points="2994.513,234.237 2991.235,221.088 2976.686,214.396 2962.847,221.401 2959.771,228.459 2967.250,245.176 2974.692,247.924 2991.294,241.317"/>
<polygon fill="#020203" points="3146.016,265.509 3138.856,257.780 3129.428,256.218 3117.795,261.699 3117.112,272.155 3130.046,278.630 3142.080,275.114"/>
<polygon fill="#020203" points="3092.089,213.329 3089.900,202.605 3082.171,195.533 3074.119,198.421 3069.194,215.089 3071.609,223.838 3081.046,230.435 3087.368,227.084"/>
<polygon fill="#020203" points="3342.567,354.031 3333.485,334.407 3312.813,336.819 3312.613,367.048 3333.876,369.404"/>
<polygon fill="#020203" points="3360.725,204.738 3357.209,190.995 3341.186,190.518 3337.649,212.847 3345.662,229.391 3355.697,226.376"/>
<polygon fill="#020203" points="3331.734,284.822 3322.886,261.588 3295.474,267.200 3294.100,288.642 3321.664,297.206"/>
<polygon fill="#020203" points="3520.727,86.598 3516.540,73.722 3510.788,69.831 3500.519,73.812 3496.426,87.572 3500.155,98.913 3507.973,103.630 3516.483,99.541"/>
<polygon fill="#020203" points="3625.688,339.035 3619.199,328.271 3606.154,324.730 3591.856,338.742 3591.878,347.608 3606.115,361.515 3617.955,358.896"/>
<polygon fill="#020203" points="3624.775,137.066 3608.848,124.356 3593.427,127.540 3588.038,144.648 3609.036,153.314"/>
<polygon fill="#020203" points="3877.652,273.839 3868.644,253.098 3850.582,263.779 3855.395,282.226 3870.729,283.771"/>
<polygon fill="#020203" points="3754.511,122.650 3749.087,114.345 3738.397,111.521 3730.650,113.882 3724.679,126.447 3730.425,134.139 3740.039,136.666 3750.719,132.517"/>
<polygon fill="#020203" points="3765.882,293.456 3761.576,276.507 3750.024,269.764 3734.569,273.991 3727.740,293.318 3734.135,304.777 3749.557,309.455 3759.046,305.181"/>
<polygon fill="#020203" points="4073.552,173.370 4063.553,162.031 4046.716,163.042 4039.500,170.906 4051.686,184.062 4066.142,182.451"/>
<polygon fill="#020203" points="3985.641,152.941 3982.210,140.639 3969.956,134.618 3962.373,138.047 3956.608,151.113 3959.158,161.599 3969.571,168.971 3980.574,164.938"/>
<polygon fill="#020203" points="4069.554,86.727 4066.728,72.290 4052.477,64.598 4039.883,72.366 4036.834,82.049 4041.541,96.230 4055.529,101.633 4063.236,98.084"/>
<polygon fill="#020203" points="4309.571,293.544 4306.658,283.203 4295.273,278.594 4286.706,283.223 4283.678,292.020 4286.158,299.369 4297.133,304.775 4307.395,299.121"/>
<polygon fill="#020203" points="4365.803,357.194 4354.244,342.295 4339.043,345.770 4336.044,358.542 4356.999,364.811"/>
</svg>
