<svg xmlns="http://www.w3.org/2000/svg" width="6500mm" height="400mm" viewBox="0 0 6500 400">
<title>zone_wall_north_ny: u right, z up, millimetres; print at 100%</title>
<rect width="6500" height="400" fill="#3b4754"/>
<polygon fill="#020203" points="132.746,400.000 154.243,400.000 154.243,0.000 132.746,0.000"/>
<polygon fill="#020203" points="403.667,400.000 431.875,400.000 431.875,0.000 403.667,0.000"/>
<polygon fill="#020203" points="623.196,400.000 645.265,400.000 645.265,0.000 623.196,0.000"/>
<polygon fill="#020203" points="842.833,400.000 869.410,400.000 869.410,0.000 842.833,0.000"/>
<polygon fill="#020203" points="1048.329,400.000 1070.363,400.000 1070.363,0.000 1048.329,0.000"/>
<polygon fill="#020203" points="1270.697,400.000 1293.598,400.000 1293.598,0.000 1270.697,0.000"/>
<polygon fill="#020203" points="1481.991,400.000 1505.706,400.000 1505.706,0.000 1481.991,0.000"/>
<polygon fill="#020203" points="1698.922,400.000 1726.505,400.000 1726.505,0.000 1698.922,0.000"/>
<polygon fill="#020203" points="1937.156,400.000 1957.715,400.000 1957.715,0.000 1937.156,0.000"/>
<polygon fill="#020203" points="2208.882,400.000 2235.825,400.000 2235.825,0.000 2208.882,0.000"/>
<polygon fill="#020203" points="2411.110,400.000 2437.707,400.000 2437.707,0.000 2411.110,0.000"/>
<polygon fill="#020203" points="2635.348,400.000 2659.718,400.000 2659.718,0.000 2635.348,0.000"/>
<polygon fill="#020203" points="2905.335,400.000 2934.830,400.000 2934.830,0.000 2905.335,0.000"/>
<polygon fill="#020203" points="3188.978,400.000 3212.790,400.000 3212.790,0.000 3188.978,0.000"/>
<polygon fill="#020203" points="3399.359,400.000 3425.069,400.000 3425.069,0.000 3399.359,0.000"/>
<polygon fill="#020203" points="3685.758,400.000 3707.271,400.000 3707.271,0.000 3685.758,0.000"/>
<polygon fill="#020203" points="3930.765,400.000 3954.456,400.000 3954.456,0.000 3930.765,0.000"/>
<polygon fill="#020203" points="4159.728,400.000 4186.203,400.000 4186.203,0.000 4159.728,0.000"/>
<polygon fill="#020203" points="4437.044,400.000 4461.195,400.000 4461.195,0.000 4437.044,0.000"/>
<polygon fill="#020203" points="4661.080,400.000 4685.208,400.000 4685.208,0.000 4661.080,0.000"/>
<polygon fill="#020203" points="4920.233,400.000 4943.327,400.000 4943.327,0.000 4920.233,0.000"/>
<polygon fill="#020203" points="5127.102,400.000 5153.218,400.000 5153.218,0.000 5127.102,0.000"/>
<polygon fill="#020203" points="5361.928,400.000 5385.285,400.000 5385.285,0.000 5361.928,0.000"/>
<polygon fill="#020203" points="5591.396,400.000 5618.107,400.000 5618.107,0.000 5591.396,0.000"/>
<polygon fill="#020203" points="5841.137,400.000 5863.945,400.000 5863.945,0.000 5841.137,0.000"/>
<polygon fill="#020203" points="6085.244,400.000 6107.847,400.000 6107.847,0.000 6085.244,0.000"/>
<polygon fill="#020203" points="6286.595,400.000 6307.167,400.000 6307.167,0.000 6286.595,0.000"/>
<polygon fill="#020203" points="240.181,169.670 235.216,157.628 219.071,154.344 211.731,160.270 209.685,174.208 219.331,184.569 234.635,181.717"/>
<polygon fill="#020203" points="278.774,111.285 274.023,97.832 255.199,98.433 251.157,111.246 255.403,118.059 274.877,117.757"/>
<polygon fill="#020203" points="285.238,362.233 280.129,351.634 270.062,347.107 259.694,350.495 253.338,366.995 256.524,375.099 270.955,381.767 281.626,375.625"/>
<polygon fill="#020203" points="503.120,319.926 492.579,296.283 481.063,301.744 479.001,324.830 496.944,331.980"/>
<polygon fill="#020203" points="514.865,214.036 506.892,194.367 495.319,195.819 489.396,207.760 497.999,226.828 510.383,223.861"/>
<polygon fill="#020203" points="537.855,316.050 531.603,303.165 519.109,299.441 504.721,305.621 501.799,318.699 512.816,328.801 532.195,325.678"/>
<polygon fill="#020203" points="817.043,240.571 810.551,225.828 795.828,227.797 794.466,256.207 810.184,260.464"/>
<polygon fill="#020203" points="731.272,233.565 724.904,225.331 713.688,223.225 702.212,227.856 699.613,235.749 704.906,242.180 715.182,244.823 728.555,240.055"/>
<polygon fill="#020203" points="1013.785,45.548 1005.332,33.663 994.184,35.686 990.762,54.092 1007.143,59.610"/>
<polygon fill="#020203" points="959.543,104.891 953.220,91.572 938.978,95.834 941.448,113.605 951.332,115.749"/>
<polygon fill="#020203" points="918.234,297.084 910.960,280.040 902.302,282.712 898.219,294.187 902.545,314.018 912.046,315.661"/>
<polygon fill="#020203" points="1161.728,62.620 1156.996,48.881 1152.037,45.863 1144.271,48.806 1139.547,61.032 1144.387,77.619 1150.981,80.574 1158.579,75.308"/>
<polygon fill="#020203" points="1194.094,168.232 1181.337,153.490 1163.543,157.502 1159.675,177.776 1186.536,184.411"/>
<polygon fill="#020203" points="1168.909,111.378 1159.989,97.596 1146.696,95.793 1134.872,105.346 1134.911,120.361 1150.883,130.364 1162.764,126.100"/>
<polygon fill="#020203" points="1203.878,211.112 1187.863,198.816 1165.618,202.807 1164.733,215.322 1185.139,220.202"/>
<polygon fill="#020203" points="1343.211,213.639 1335.407,202.071 1322.426,204.153 1318.017,213.447 1323.658,224.311 1338.708,223.456"/>
<polygon fill="#020203" points="1405.295,297.163 1400.075,289.510 1377.446,286.778 1368.079,291.088 1369.377,303.579 1377.454,306.891 1395.688,306.122"/>
<polygon fill="#020203" points="1405.569,100.006 1398.917,90.087 1390.124,87.228 1373.977,92.610 1370.452,100.409 1377.526,111.912 1387.957,114.632 1399.484,111.308"/>
<polygon fill="#020203" points="1626.683,148.818 1623.182,134.102 1616.806,129.690 1606.907,136.142 1604.665,149.159 1606.558,156.448 1613.498,163.389 1622.995,159.470"/>
<polygon fill="#020203" points="1549.443,184.224 1544.258,172.593 1537.068,169.219 1527.058,173.588 1522.849,183.938 1527.019,197.882 1533.858,202.093 1544.985,198.181"/>
<polygon fill="#020203" points="1572.705,325.423 1561.512,312.047 1545.189,313.393 1537.448,325.064 1542.906,333.593 1564.488,335.190"/>
<polygon fill="#020203" points="1829.931,272.434 1826.600,264.906 1814.728,262.232 1808.569,268.498 1808.212,277.944 1818.537,285.956 1824.483,284.243"/>
<polygon fill="#020203" points="1844.034,194.587 1834.386,182.515 1825.513,186.094 1823.567,204.661 1837.829,209.882"/>
<polygon fill="#020203" points="1901.303,270.157 1899.163,259.674 1891.386,254.133 1879.820,259.747 1877.607,266.735 1879.986,276.291 1888.865,281.794 1896.682,279.031"/>
<polygon fill="#020203" points="1847.330,59.934 1842.201,48.847 1824.827,42.616 1807.822,54.798 1810.554,72.814 1825.684,80.422 1841.882,74.449"/>
<polygon fill="#020203" points="2180.783,285.154 2176.859,269.508 2164.915,267.237 2159.326,279.391 2166.610,302.090 2175.396,300.385"/>
<polygon fill="#020203" points="2021.049,62.370 2014.957,52.404 1997.029,57.500 1997.047,67.241 2011.506,73.622"/>
<polygon fill="#020203" points="2382.932,272.596 2375.270,260.667 2354.233,262.671 2348.743,280.724 2355.169,292.561 2378.178,291.118"/>
<polygon fill="#020203" points="2353.488,262.386 2345.141,252.276 2333.327,249.960 2318.816,256.379 2317.444,269.928 2327.029,277.050 2348.216,274.011"/>
<polygon fill="#020203" points="2321.809,317.982 2310.908,300.245 2298.433,312.927 2302.028,338.579 2316.336,339.828"/>
<polygon fill="#020203" points="2547.334,164.508 2538.789,153.512 2521.173,156.473 2516.706,172.794 2526.500,184.369 2542.830,180.894"/>
<polygon fill="#020203" points="2551.172,363.993 2541.634,344.148 2518.382,353.952 2521.049,370.080 2537.852,376.277"/>
<polygon fill="#020203" points="2583.329,331.435 2578.099,321.919 2562.120,318.381 2544.419,323.879 2544.620,335.102 2559.363,340.290 2574.590,338.476"/>
<polygon fill="#020203" points="2500.747,216.880 2487.606,196.653 2473.595,201.813 2470.180,220.495 2491.150,230.479"/>
<polygon fill="#020203" points="2743.775,328.996 2740.617,320.260 2731.721,313.756 2720.113,318.178 2715.193,330.904 2720.833,347.468 2730.096,351.321 2737.635,348.120"/>
<polygon fill="#020203" points="2750.630,296.045 2745.608,281.611 2734.584,277.241 2723.505,284.335 2720.582,294.239 2723.851,305.633 2733.461,312.060 2746.634,306.666"/>
<polygon fill="#020203" points="2713.381,298.805 2704.362,280.202 2693.088,282.531 2687.852,297.997 2693.812,308.819 2708.157,308.330"/>
<polygon fill="#020203" points="2835.284,337.181 2827.606,324.966 2817.949,324.905 2810.353,343.410 2816.494,353.550 2826.222,354.970"/>
<polygon fill="#020203" points="3051.891,261.251 3048.592,249.035 3034.748,245.202 3027.714,256.273 3029.689,269.882 3034.952,275.413 3046.849,273.518"/>
<polygon fill="#020203" points="3172.206,269.263 3165.656,254.707 3156.370,251.096 3146.757,255.340 3140.854,270.161 3145.511,284.372 3157.420,289.960 3168.448,283.219"/>
<polygon fill="#020203" points="3382.249,261.674 3368.922,244.127 3353.591,245.998 3344.291,262.669 3351.389,278.260 3376.084,277.466"/>
<polygon fill="#020203" points="3292.986,119.385 3284.519,101.494 3269.586,106.424 3270.690,125.256 3284.132,128.942"/>
<polygon fill="#020203" points="3277.187,45.699 3269.346,35.051 3259.530,33.265 3245.640,41.665 3245.114,48.808 3256.288,58.129 3269.292,56.854"/>
<polygon fill="#020203" points="3334.263,94.171 3329.772,76.851 3324.154,73.779 3316.443,79.529 3313.778,89.189 3316.595,104.492 3323.648,109.954 3331.654,104.049"/>
<polygon fill="#020203" points="3517.845,200.404 3512.205,186.062 3501.911,184.256 3494.025,199.017 3501.595,220.444 3510.914,219.931"/>
<polygon fill="#020203" points="3618.550,279.945 3613.700,269.069 3605.790,267.147 3597.822,276.950 3599.427,289.231 3604.314,294.140 3615.319,291.089"/>
<polygon fill="#020203" points="3672.810,340.465 3667.239,333.378 3650.242,330.468 3641.379,332.519 3633.986,340.357 3640.858,348.300 3651.946,350.682 3666.906,347.839"/>
<polygon fill="#020203" points="3806.175,48.749 3802.840,42.834 3791.294,38.316 3779.040,43.236 3775.973,49.437 3779.697,59.324 3791.245,63.587 3800.785,60.746"/>
<polygon fill="#020203" points="3869.281,191.104 3864.054,183.125 3849.977,180.069 3836.721,186.469 3837.810,197.297 3849.111,202.303 3859.778,201.320"/>
<polygon fill="#020203" points="3900.393,243.842 3885.218,230.424 3872.995,233.770 3870.029,245.095 3890.079,250.812"/>
<polygon fill="#020203" points="4134.299,334.753 4127.980,315.702 4119.254,313.163 4110.218,322.954 4109.639,341.635 4117.237,352.377 4127.573,350.996"/>
<polygon fill="#020203" points="4006.986,267.755 3999.093,254.932 3984.421,253.487 3973.600,270.298 3985.874,287.566 3999.046,285.640"/>
<polygon fill="#020203" points="4004.840,35.305 3997.203,22.183 3984.392,26.910 3984.183,43.014 3994.356,48.804"/>
<polygon fill="#020203" points="4322.942,219.123 4315.487,209.555 4307.644,208.403 4296.330,216.077 4296.457,223.605 4307.913,231.002 4319.757,227.003"/>
<polygon fill="#020203" points="4345.606,144.712 4342.180,137.154 4334.085,134.450 4328.424,137.631 4325.423,145.138 4328.600,154.151 4335.588,157.257 4343.730,152.513"/>
<polygon fill="#020203" points="4415.379,52.202 4409.103,34.834 4387.521,33.572 4379.735,52.905 4387.499,65.004 4410.216,62.703"/>
<polygon fill="#020203" points="4548.454,230.158 4541.736,222.228 4525.770,220.777 4516.243,228.071 4516.769,237.538 4531.488,244.764 4544.440,240.629"/>
<polygon fill="#020203" points="4548.659,75.942 4546.048,66.205 4536.848,60.623 4526.549,63.072 4520.852,76.586 4525.792,85.232 4535.708,88.389 4545.447,83.443"/>
<polygon fill="#020203" points="4643.338,55.137 4640.928,48.045 4631.876,42.103 4622.198,44.792 4616.937,54.283 4621.861,67.771 4629.383,70.848 4637.736,68.243"/>
<polygon fill="#020203" points="4753.137,344.123 4744.890,330.487 4730.676,330.006 4724.190,334.834 4722.884,349.232 4733.022,356.824 4748.453,353.202"/>
<polygon fill="#020203" points="4734.868,99.829 4726.934,90.189 4710.595,88.134 4696.869,98.507 4705.127,112.617 4724.125,113.500"/>
<polygon fill="#020203" points="4848.813,330.222 4837.114,313.755 4821.816,315.169 4813.161,333.640 4824.048,348.151 4838.825,347.661"/>
<polygon fill="#020203" points="5116.052,257.202 5111.387,245.122 5102.194,240.600 5089.072,243.171 5081.914,257.272 5086.855,266.739 5100.328,271.225 5111.483,266.385"/>
<polygon fill="#020203" points="5090.837,156.697 5082.811,144.788 5064.479,142.160 5053.094,149.217 5053.639,167.242 5065.988,173.950 5080.255,172.333"/>
<polygon fill="#020203" points="5238.547,34.939 5229.222,23.832 5205.370,25.410 5198.928,37.850 5212.706,50.227 5231.641,47.410"/>
<polygon fill="#020203" points="5342.661,75.216 5323.696,50.761 5304.287,59.806 5304.559,80.094 5330.416,87.360"/>
<polygon fill="#020203" points="5284.367,196.990 5274.118,180.449 5264.168,190.343 5265.885,205.960 5275.684,211.320"/>
<polygon fill="#020203" points="5271.129,175.771 5265.909,163.274 5260.358,160.510 5251.416,164.574 5247.499,179.566 5251.098,189.186 5257.135,193.457 5266.937,189.807"/>
<polygon fill="#020203" points="5454.709,150.743 5448.507,138.998 5434.644,136.085 5424.809,146.501 5426.391,166.392 5433.533,173.074 5448.751,170.402"/>
<polygon fill="#020203" points="5562.496,237.340 5556.796,215.556 5547.540,214.650 5542.730,221.477 5542.410,244.738 5547.325,252.247 5559.537,247.745"/>
<polygon fill="#020203" points="5700.153,54.531 5695.445,42.566 5677.431,43.040 5673.480,55.173 5677.624,61.364 5691.774,63.644"/>
<polygon fill="#020203" points="5779.181,32.908 5771.786,24.135 5748.302,30.943 5748.786,42.363 5764.640,50.215"/>
<polygon fill="#020203" points="5788.192,249.722 5779.330,233.973 5764.651,232.932 5754.047,255.742 5759.349,267.833 5782.110,268.591"/>
<polygon fill="#020203" points="5972.752,36.703 5970.292,25.764 5962.468,19.698 5950.270,24.808 5947.200,36.899 5949.447,44.158 5958.090,50.687 5970.240,44.576"/>
<polygon fill="#020203" points="6037.490,336.956 6033.271,321.363 6022.544,318.784 6015.169,328.448 6015.491,340.141 6024.735,349.366 6034.650,344.420"/>
<polygon fill="#020203" points="6206.979,46.428 6192.596,27.434 6179.174,36.876 6182.446,55.317 6195.736,59.337"/>
<polygon fill="#020203" points="6197.810,103.328 6192.825,90.691 6182.356,87.639 6173.958,96.269 6175.159,114.714 6182.563,120.914 6193.214,117.388"/>
</svg>
